<?xml version="1.0" encoding="UTF-8" standalone="no"?><!DOCTYPE svg PUBLIC "-//W3C//DTD SVG 1.1//EN" "http://www.w3.org/Graphics/SVG/1.1/DTD/svg11.dtd">
<svg width="100%" height="100%" viewBox="0 0 281 236" version="1.1" xmlns="http://www.w3.org/2000/svg"  xml:space="preserve"  style="fill-rule:evenodd;clip-rule:evenodd;stroke-linejoin:round;stroke-miterlimit:1.41421;"><rect id="Artboard1" x="0" y="0" width="280.754" height="235.846" style="fill:none;"/><path id="Bottom" d="M6.529,160.045l131.757,-66.14c1.8,-0.903 3.922,-0.903 5.722,0l131.757,66.14c1.574,0.79 2.21,2.707 1.42,4.281c-0.308,0.613 -0.806,1.111 -1.42,1.419l-131.757,66.14c-1.8,0.904 -3.922,0.904 -5.722,0l-131.757,-66.14c-1.574,-0.79 -2.21,-2.707 -1.42,-4.28c0.308,-0.614 0.806,-1.112 1.42,-1.42Z" style="fill:#566679;"/><path id="Middle" d="M18.664,109.649l119.891,-60.684c1.63,-0.825 3.554,-0.825 5.184,0l119.891,60.684c1.414,0.716 1.98,2.443 1.264,3.857c-0.276,0.545 -0.719,0.988 -1.264,1.264l-119.891,60.685c-1.63,0.825 -3.554,0.825 -5.184,0l-119.891,-60.685c-1.414,-0.716 -1.98,-2.442 -1.264,-3.856c0.276,-0.546 0.719,-0.989 1.264,-1.265Z" style="fill:#a6aeb8;"/><path id="Top" d="M30.928,56.308l104.75,-52.333c1.436,-0.717 3.125,-0.717 4.561,0l104.75,52.333c1.261,0.63 1.772,2.162 1.142,3.422c-0.247,0.494 -0.647,0.895 -1.142,1.142l-104.75,52.333c-1.436,0.717 -3.125,0.717 -4.561,0l-104.75,-52.333c-1.261,-0.63 -1.772,-2.162 -1.142,-3.422c0.247,-0.494 0.647,-0.895 1.142,-1.142Z" style="fill:#fff;"/></svg>
